<svg xmlns="http://www.w3.org/2000/svg" width="24" height="24" viewBox="0 0 24 24"><g><path stroke="#000" stroke-linecap="round" stroke-linejoin="round" stroke-miterlimit="10" d="M19.499 11.36c.076 4.419-3.581 8.063-7.999 8.14-4.418.077-7.922-3.443-7.999-7.86-.077-4.418 3.581-8.064 7.999-8.14 4.418-.077 7.922 3.443 7.999 7.86zM11.5 12.59v-5.091" fill="none"/><path d="M11.501 14.408h-.014c-.401.007-.722.338-.715.739.007.397.331.715.728.715h.013c.401-.007.722-.339.715-.739-.007-.398-.332-.715-.727-.715z"/><path stroke="#000" stroke-linecap="round" stroke-linejoin="round" stroke-miterlimit="10" d="M3.998 19.545c-2.152-2.008-3.498-4.869-3.498-8.045 0-3.154 1.327-5.998 3.455-8.004M19.023 3.475c2.14 2.008 3.477 4.86 3.477 8.025 0 3.177-1.347 6.039-3.5 8.047" fill="none"/></g></svg>